<svg xmlns="http://www.w3.org/2000/svg" version="1.1" xmlns:xlink="http://www.w3.org/1999/xlink" xmlns:svgjs="http://svgjs.dev/svgjs" width="1440" height="560" preserveAspectRatio="none" viewBox="0 0 1440 560">
    <g mask="url(&quot;#SvgjsMask1375&quot;)" fill="none">
        <g mask="url(&quot;#SvgjsMask1376&quot;)">
            <path d="M1421 287L1407 273L1393 273M1449 287L1435 287L1421 287L1407 287" stroke="rgba(151, 115, 255, 1)" stroke-width="2.33"></path>
            <path d="M1403.5 287 a3.5 3.5 0 1 0 7 0 a3.5 3.5 0 1 0 -7 0zM1389.5 273 a3.5 3.5 0 1 0 7 0 a3.5 3.5 0 1 0 -7 0z" fill="rgba(151, 115, 255, 1)"></path>
            <path d="M1379 259L1365 245L1351 245L1337 245M1351 259L1337 273M1393 259L1379 245M1449 273L1435 273L1421 259L1407 259L1393 259L1379 259L1365 259L1351 259L1337 259L1323 273" stroke="rgba(239, 206, 255, 1)" stroke-width="2.33"></path>
            <path d="M1319.5 273 a3.5 3.5 0 1 0 7 0 a3.5 3.5 0 1 0 -7 0zM1333.5 245 a3.5 3.5 0 1 0 7 0 a3.5 3.5 0 1 0 -7 0zM1333.5 273 a3.5 3.5 0 1 0 7 0 a3.5 3.5 0 1 0 -7 0zM1375.5 245 a3.5 3.5 0 1 0 7 0 a3.5 3.5 0 1 0 -7 0z" fill="rgba(239, 206, 255, 1)"></path>
            <path d="M1295 301L1281 315L1267 315L1253 315M1379 301L1365 315L1351 315M1407 301L1393 315M1449 301L1435 301L1421 301L1407 301L1393 301L1379 301L1365 301L1351 301L1337 301L1323 301L1309 301L1295 301L1281 301L1267 301" stroke="rgba(151, 115, 255, 1)" stroke-width="2.33"></path>
            <path d="M1263.5 301 a3.5 3.5 0 1 0 7 0 a3.5 3.5 0 1 0 -7 0zM1249.5 315 a3.5 3.5 0 1 0 7 0 a3.5 3.5 0 1 0 -7 0zM1347.5 315 a3.5 3.5 0 1 0 7 0 a3.5 3.5 0 1 0 -7 0zM1389.5 315 a3.5 3.5 0 1 0 7 0 a3.5 3.5 0 1 0 -7 0z" fill="rgba(151, 115, 255, 1)"></path>
            <path d="M1449 259L1435 259L1421 245L1407 245" stroke="rgba(151, 115, 255, 1)" stroke-width="2.33"></path>
            <path d="M1403.5 245 a3.5 3.5 0 1 0 7 0 a3.5 3.5 0 1 0 -7 0z" fill="rgba(151, 115, 255, 1)"></path>
            <path d="M1421 315L1407 315M1449 315L1435 315L1421 315L1407 329L1393 329L1379 329" stroke="rgba(151, 115, 255, 1)" stroke-width="2.33"></path>
            <path d="M1375.5 329 a3.5 3.5 0 1 0 7 0 a3.5 3.5 0 1 0 -7 0zM1403.5 315 a3.5 3.5 0 1 0 7 0 a3.5 3.5 0 1 0 -7 0z" fill="rgba(151, 115, 255, 1)"></path>
            <path d="M1435 329L1421 343M1449 329L1435 329L1421 329L1407 343L1393 343L1379 343L1365 343" stroke="rgba(151, 115, 255, 1)" stroke-width="2.33"></path>
            <path d="M1361.5 343 a3.5 3.5 0 1 0 7 0 a3.5 3.5 0 1 0 -7 0zM1417.5 343 a3.5 3.5 0 1 0 7 0 a3.5 3.5 0 1 0 -7 0z" fill="rgba(151, 115, 255, 1)"></path>
            <path d="M1295 245L1281 259L1267 273L1253 273M1323 231L1309 231L1295 231L1281 231M1253 245L1239 231M1267 245L1253 231M1449 231L1435 231L1421 231L1407 231L1393 231L1379 231L1365 231L1351 231L1337 231L1323 231L1309 245L1295 245L1281 245L1267 245L1253 245L1239 245" stroke="rgba(239, 206, 255, 1)" stroke-width="2.33"></path>
            <path d="M1235.5 245 a3.5 3.5 0 1 0 7 0 a3.5 3.5 0 1 0 -7 0zM1249.5 273 a3.5 3.5 0 1 0 7 0 a3.5 3.5 0 1 0 -7 0zM1277.5 231 a3.5 3.5 0 1 0 7 0 a3.5 3.5 0 1 0 -7 0zM1235.5 231 a3.5 3.5 0 1 0 7 0 a3.5 3.5 0 1 0 -7 0zM1249.5 231 a3.5 3.5 0 1 0 7 0 a3.5 3.5 0 1 0 -7 0z" fill="rgba(239, 206, 255, 1)"></path>
            <path d="M1337 217L1323 203L1309 203M1239 217L1225 203L1211 203L1197 203L1183 203M1253 217L1239 203L1225 189M1267 217L1253 203M1183 217L1169 231M1449 217L1435 217L1421 217L1407 217L1393 217L1379 217L1365 217L1351 217L1337 217L1323 217L1309 217L1295 217L1281 217L1267 217L1253 217L1239 217L1225 217L1211 217L1197 217L1183 217L1169 217" stroke="rgba(151, 115, 255, 1)" stroke-width="2.33"></path>
            <path d="M1165.5 217 a3.5 3.5 0 1 0 7 0 a3.5 3.5 0 1 0 -7 0zM1305.5 203 a3.5 3.5 0 1 0 7 0 a3.5 3.5 0 1 0 -7 0zM1179.5 203 a3.5 3.5 0 1 0 7 0 a3.5 3.5 0 1 0 -7 0zM1221.5 189 a3.5 3.5 0 1 0 7 0 a3.5 3.5 0 1 0 -7 0zM1249.5 203 a3.5 3.5 0 1 0 7 0 a3.5 3.5 0 1 0 -7 0zM1165.5 231 a3.5 3.5 0 1 0 7 0 a3.5 3.5 0 1 0 -7 0z" fill="rgba(151, 115, 255, 1)"></path>
            <path d="M1449 357L1435 357L1421 357L1407 357L1393 357" stroke="rgba(239, 206, 255, 1)" stroke-width="2.33"></path>
            <path d="M1389.5 357 a3.5 3.5 0 1 0 7 0 a3.5 3.5 0 1 0 -7 0z" fill="rgba(239, 206, 255, 1)"></path>
            <path d="M1351 203L1337 203M1449 203L1435 203L1421 203L1407 203L1393 203L1379 203L1365 203L1351 203L1337 189L1323 189L1309 189" stroke="rgba(239, 206, 255, 1)" stroke-width="2.33"></path>
            <path d="M1305.5 189 a3.5 3.5 0 1 0 7 0 a3.5 3.5 0 1 0 -7 0zM1333.5 203 a3.5 3.5 0 1 0 7 0 a3.5 3.5 0 1 0 -7 0z" fill="rgba(239, 206, 255, 1)"></path>
            <path d="M1435 371L1421 385L1407 385L1393 385M1309 399L1295 399L1281 399M1337 385L1323 385L1309 385L1295 385M1267 413L1253 399L1239 399L1225 399M1449 371L1435 371L1421 371L1407 371L1393 371L1379 385L1365 385L1351 385L1337 385L1323 399L1309 399L1295 413L1281 413L1267 413L1253 413L1239 413" stroke="rgba(151, 115, 255, 1)" stroke-width="2.33"></path>
            <path d="M1235.5 413 a3.5 3.5 0 1 0 7 0 a3.5 3.5 0 1 0 -7 0zM1389.5 385 a3.5 3.5 0 1 0 7 0 a3.5 3.5 0 1 0 -7 0zM1277.5 399 a3.5 3.5 0 1 0 7 0 a3.5 3.5 0 1 0 -7 0zM1291.5 385 a3.5 3.5 0 1 0 7 0 a3.5 3.5 0 1 0 -7 0zM1221.5 399 a3.5 3.5 0 1 0 7 0 a3.5 3.5 0 1 0 -7 0z" fill="rgba(151, 115, 255, 1)"></path>
            <path d="M1127 133L1113 119M1239 161L1225 161M1267 161L1253 147L1239 147M1197 147L1183 161L1169 161L1155 161M1295 175L1281 189L1267 189L1253 189L1239 189L1225 175M1253 161L1239 175M1449 189L1435 189L1421 189L1407 189L1393 189L1379 189L1365 189L1351 189L1337 175L1323 175L1309 175L1295 175L1281 175L1267 161L1253 161L1239 161L1225 147L1211 147L1197 147L1183 147L1169 147L1155 133L1141 133L1127 133L1113 133" stroke="rgba(151, 115, 255, 1)" stroke-width="2.33"></path>
            <path d="M1109.5 133 a3.5 3.5 0 1 0 7 0 a3.5 3.5 0 1 0 -7 0zM1109.5 119 a3.5 3.5 0 1 0 7 0 a3.5 3.5 0 1 0 -7 0zM1221.5 161 a3.5 3.5 0 1 0 7 0 a3.5 3.5 0 1 0 -7 0zM1235.5 147 a3.5 3.5 0 1 0 7 0 a3.5 3.5 0 1 0 -7 0zM1151.5 161 a3.5 3.5 0 1 0 7 0 a3.5 3.5 0 1 0 -7 0zM1221.5 175 a3.5 3.5 0 1 0 7 0 a3.5 3.5 0 1 0 -7 0zM1235.5 175 a3.5 3.5 0 1 0 7 0 a3.5 3.5 0 1 0 -7 0z" fill="rgba(151, 115, 255, 1)"></path>
            <path d="M1295 161L1281 147M1323 161L1309 147L1295 147M1449 175L1435 175L1421 175L1407 175L1393 175L1379 175L1365 175L1351 161L1337 161L1323 161L1309 161L1295 161L1281 161" stroke="rgba(239, 206, 255, 1)" stroke-width="2.33"></path>
            <path d="M1277.5 161 a3.5 3.5 0 1 0 7 0 a3.5 3.5 0 1 0 -7 0zM1277.5 147 a3.5 3.5 0 1 0 7 0 a3.5 3.5 0 1 0 -7 0zM1291.5 147 a3.5 3.5 0 1 0 7 0 a3.5 3.5 0 1 0 -7 0z" fill="rgba(239, 206, 255, 1)"></path>
            <path d="M1253 427L1239 441L1225 455L1211 455M1225 441L1211 427L1197 427L1183 427M1169 441L1155 455L1141 455L1127 455L1113 455M1267 427L1253 441L1239 455L1225 469L1211 469L1197 469L1183 469L1169 483M1197 441L1183 455L1169 455L1155 469M1141 441L1127 427L1113 427M1449 399L1435 399L1421 399L1407 399L1393 399L1379 399L1365 399L1351 399L1337 399L1323 413L1309 413L1295 427L1281 427L1267 427L1253 427L1239 427L1225 441L1211 441L1197 441L1183 441L1169 441L1155 441L1141 441L1127 441L1113 441" stroke="rgba(239, 206, 255, 1)" stroke-width="2.33"></path>
            <path d="M1109.5 441 a3.5 3.5 0 1 0 7 0 a3.5 3.5 0 1 0 -7 0zM1207.5 455 a3.5 3.5 0 1 0 7 0 a3.5 3.5 0 1 0 -7 0zM1179.5 427 a3.5 3.5 0 1 0 7 0 a3.5 3.5 0 1 0 -7 0zM1109.5 455 a3.5 3.5 0 1 0 7 0 a3.5 3.5 0 1 0 -7 0zM1165.5 483 a3.5 3.5 0 1 0 7 0 a3.5 3.5 0 1 0 -7 0zM1151.5 469 a3.5 3.5 0 1 0 7 0 a3.5 3.5 0 1 0 -7 0zM1109.5 427 a3.5 3.5 0 1 0 7 0 a3.5 3.5 0 1 0 -7 0z" fill="rgba(239, 206, 255, 1)"></path>
            <path d="M1393 161L1379 147M1407 161L1393 147M1323 133L1309 119L1295 105L1281 105M1337 133L1323 119M1449 161L1435 161L1421 161L1407 161L1393 161L1379 161L1365 161L1351 147L1337 133L1323 133L1309 133L1295 133L1281 133L1267 133L1253 133L1239 133L1225 133" stroke="rgba(151, 115, 255, 1)" stroke-width="2.33"></path>
            <path d="M1221.5 133 a3.5 3.5 0 1 0 7 0 a3.5 3.5 0 1 0 -7 0zM1375.5 147 a3.5 3.5 0 1 0 7 0 a3.5 3.5 0 1 0 -7 0zM1389.5 147 a3.5 3.5 0 1 0 7 0 a3.5 3.5 0 1 0 -7 0zM1277.5 105 a3.5 3.5 0 1 0 7 0 a3.5 3.5 0 1 0 -7 0zM1319.5 119 a3.5 3.5 0 1 0 7 0 a3.5 3.5 0 1 0 -7 0z" fill="rgba(151, 115, 255, 1)"></path>
            <path d="M1351 413L1337 427L1323 427L1309 427M1379 413L1365 427M1421 413L1407 427L1393 427M1449 413L1435 413L1421 413L1407 413L1393 413L1379 413L1365 413L1351 413L1337 413" stroke="rgba(151, 115, 255, 1)" stroke-width="2.33"></path>
            <path d="M1333.5 413 a3.5 3.5 0 1 0 7 0 a3.5 3.5 0 1 0 -7 0zM1305.5 427 a3.5 3.5 0 1 0 7 0 a3.5 3.5 0 1 0 -7 0zM1361.5 427 a3.5 3.5 0 1 0 7 0 a3.5 3.5 0 1 0 -7 0zM1389.5 427 a3.5 3.5 0 1 0 7 0 a3.5 3.5 0 1 0 -7 0z" fill="rgba(151, 115, 255, 1)"></path>
            <path d="M1393 133L1379 119L1365 119M1421 147L1407 147M1379 133L1365 133L1351 133L1337 119M1449 147L1435 147L1421 147L1407 133L1393 133L1379 133L1365 147" stroke="rgba(151, 115, 255, 1)" stroke-width="2.33"></path>
            <path d="M1361.5 147 a3.5 3.5 0 1 0 7 0 a3.5 3.5 0 1 0 -7 0zM1361.5 119 a3.5 3.5 0 1 0 7 0 a3.5 3.5 0 1 0 -7 0zM1403.5 147 a3.5 3.5 0 1 0 7 0 a3.5 3.5 0 1 0 -7 0zM1333.5 119 a3.5 3.5 0 1 0 7 0 a3.5 3.5 0 1 0 -7 0z" fill="rgba(151, 115, 255, 1)"></path>
        </g>
    </g>
    <defs>
        <mask id="SvgjsMask1375">
            <rect width="1440" height="560" fill="#ffffff"></rect>
        </mask>
        <mask id="SvgjsMask1376">
            <rect width="1440" height="560" fill="white"></rect>
            <path d="M1405.25 287 a1.75 1.75 0 1 0 3.5 0 a1.75 1.75 0 1 0 -3.5 0zM1391.25 273 a1.75 1.75 0 1 0 3.5 0 a1.75 1.75 0 1 0 -3.5 0z" fill="black"></path>
            <path d="M1321.25 273 a1.75 1.75 0 1 0 3.5 0 a1.75 1.75 0 1 0 -3.5 0zM1335.25 245 a1.75 1.75 0 1 0 3.5 0 a1.75 1.75 0 1 0 -3.5 0zM1335.25 273 a1.75 1.75 0 1 0 3.5 0 a1.75 1.75 0 1 0 -3.5 0zM1377.25 245 a1.75 1.75 0 1 0 3.5 0 a1.75 1.75 0 1 0 -3.5 0z" fill="black"></path>
            <path d="M1265.25 301 a1.75 1.75 0 1 0 3.5 0 a1.75 1.75 0 1 0 -3.5 0zM1251.25 315 a1.75 1.75 0 1 0 3.5 0 a1.75 1.75 0 1 0 -3.5 0zM1349.25 315 a1.75 1.75 0 1 0 3.5 0 a1.75 1.75 0 1 0 -3.5 0zM1391.25 315 a1.75 1.75 0 1 0 3.5 0 a1.75 1.75 0 1 0 -3.5 0z" fill="black"></path>
            <path d="M1405.25 245 a1.75 1.75 0 1 0 3.5 0 a1.75 1.75 0 1 0 -3.5 0z" fill="black"></path>
            <path d="M1377.25 329 a1.75 1.75 0 1 0 3.5 0 a1.75 1.75 0 1 0 -3.5 0zM1405.25 315 a1.75 1.75 0 1 0 3.5 0 a1.75 1.75 0 1 0 -3.5 0z" fill="black"></path>
            <path d="M1363.25 343 a1.75 1.75 0 1 0 3.5 0 a1.75 1.75 0 1 0 -3.5 0zM1419.25 343 a1.75 1.75 0 1 0 3.5 0 a1.75 1.75 0 1 0 -3.5 0z" fill="black"></path>
            <path d="M1237.25 245 a1.75 1.75 0 1 0 3.5 0 a1.75 1.75 0 1 0 -3.5 0zM1251.25 273 a1.75 1.75 0 1 0 3.5 0 a1.75 1.75 0 1 0 -3.5 0zM1279.25 231 a1.75 1.75 0 1 0 3.5 0 a1.75 1.75 0 1 0 -3.5 0zM1237.25 231 a1.75 1.75 0 1 0 3.5 0 a1.75 1.75 0 1 0 -3.5 0zM1251.25 231 a1.75 1.75 0 1 0 3.5 0 a1.75 1.75 0 1 0 -3.5 0z" fill="black"></path>
            <path d="M1167.25 217 a1.75 1.75 0 1 0 3.5 0 a1.75 1.75 0 1 0 -3.5 0zM1307.25 203 a1.75 1.75 0 1 0 3.5 0 a1.75 1.75 0 1 0 -3.5 0zM1181.25 203 a1.75 1.75 0 1 0 3.5 0 a1.75 1.75 0 1 0 -3.5 0zM1223.25 189 a1.75 1.75 0 1 0 3.5 0 a1.75 1.75 0 1 0 -3.5 0zM1251.25 203 a1.75 1.75 0 1 0 3.5 0 a1.75 1.75 0 1 0 -3.5 0zM1167.25 231 a1.75 1.75 0 1 0 3.5 0 a1.75 1.75 0 1 0 -3.5 0z" fill="black"></path>
            <path d="M1391.25 357 a1.75 1.75 0 1 0 3.5 0 a1.75 1.75 0 1 0 -3.5 0z" fill="black"></path>
            <path d="M1307.25 189 a1.75 1.75 0 1 0 3.5 0 a1.75 1.75 0 1 0 -3.5 0zM1335.25 203 a1.75 1.75 0 1 0 3.5 0 a1.75 1.75 0 1 0 -3.5 0z" fill="black"></path>
            <path d="M1237.25 413 a1.75 1.75 0 1 0 3.5 0 a1.75 1.75 0 1 0 -3.5 0zM1391.25 385 a1.75 1.75 0 1 0 3.5 0 a1.75 1.75 0 1 0 -3.5 0zM1279.25 399 a1.75 1.75 0 1 0 3.5 0 a1.75 1.75 0 1 0 -3.5 0zM1293.25 385 a1.75 1.75 0 1 0 3.5 0 a1.75 1.75 0 1 0 -3.5 0zM1223.25 399 a1.75 1.75 0 1 0 3.5 0 a1.75 1.75 0 1 0 -3.5 0z" fill="black"></path>
            <path d="M1111.25 133 a1.75 1.75 0 1 0 3.5 0 a1.75 1.75 0 1 0 -3.5 0zM1111.25 119 a1.75 1.75 0 1 0 3.5 0 a1.75 1.75 0 1 0 -3.5 0zM1223.25 161 a1.75 1.75 0 1 0 3.5 0 a1.75 1.75 0 1 0 -3.5 0zM1237.25 147 a1.75 1.75 0 1 0 3.5 0 a1.75 1.75 0 1 0 -3.5 0zM1153.25 161 a1.75 1.75 0 1 0 3.5 0 a1.75 1.75 0 1 0 -3.5 0zM1223.25 175 a1.75 1.75 0 1 0 3.5 0 a1.75 1.75 0 1 0 -3.5 0zM1237.25 175 a1.75 1.75 0 1 0 3.5 0 a1.75 1.75 0 1 0 -3.5 0z" fill="black"></path>
            <path d="M1279.25 161 a1.75 1.75 0 1 0 3.5 0 a1.75 1.75 0 1 0 -3.5 0zM1279.25 147 a1.75 1.75 0 1 0 3.5 0 a1.75 1.75 0 1 0 -3.5 0zM1293.25 147 a1.75 1.75 0 1 0 3.5 0 a1.75 1.75 0 1 0 -3.5 0z" fill="black"></path>
            <path d="M1111.25 441 a1.75 1.75 0 1 0 3.5 0 a1.75 1.75 0 1 0 -3.5 0zM1209.25 455 a1.75 1.75 0 1 0 3.5 0 a1.75 1.75 0 1 0 -3.5 0zM1181.25 427 a1.75 1.75 0 1 0 3.5 0 a1.75 1.75 0 1 0 -3.5 0zM1111.25 455 a1.75 1.75 0 1 0 3.5 0 a1.75 1.75 0 1 0 -3.5 0zM1167.25 483 a1.75 1.75 0 1 0 3.5 0 a1.75 1.75 0 1 0 -3.5 0zM1153.25 469 a1.75 1.75 0 1 0 3.5 0 a1.75 1.75 0 1 0 -3.5 0zM1111.25 427 a1.75 1.75 0 1 0 3.5 0 a1.75 1.75 0 1 0 -3.5 0z" fill="black"></path>
            <path d="M1223.25 133 a1.75 1.75 0 1 0 3.5 0 a1.75 1.75 0 1 0 -3.5 0zM1377.25 147 a1.75 1.75 0 1 0 3.5 0 a1.75 1.75 0 1 0 -3.5 0zM1391.25 147 a1.75 1.75 0 1 0 3.5 0 a1.75 1.75 0 1 0 -3.5 0zM1279.25 105 a1.75 1.75 0 1 0 3.5 0 a1.75 1.75 0 1 0 -3.5 0zM1321.25 119 a1.75 1.75 0 1 0 3.5 0 a1.75 1.75 0 1 0 -3.5 0z" fill="black"></path>
            <path d="M1335.25 413 a1.75 1.75 0 1 0 3.5 0 a1.75 1.75 0 1 0 -3.5 0zM1307.25 427 a1.75 1.75 0 1 0 3.5 0 a1.75 1.75 0 1 0 -3.5 0zM1363.25 427 a1.75 1.75 0 1 0 3.5 0 a1.75 1.75 0 1 0 -3.5 0zM1391.25 427 a1.75 1.75 0 1 0 3.5 0 a1.75 1.75 0 1 0 -3.5 0z" fill="black"></path>
            <path d="M1363.25 147 a1.75 1.75 0 1 0 3.5 0 a1.75 1.75 0 1 0 -3.5 0zM1363.25 119 a1.75 1.75 0 1 0 3.5 0 a1.75 1.75 0 1 0 -3.5 0zM1405.25 147 a1.75 1.75 0 1 0 3.5 0 a1.75 1.75 0 1 0 -3.5 0zM1335.25 119 a1.75 1.75 0 1 0 3.5 0 a1.75 1.75 0 1 0 -3.5 0z" fill="black"></path>
        </mask>
    </defs>
</svg>