<?xml version="1.0" standalone="no"?>
<!DOCTYPE svg PUBLIC "-//W3C//DTD SVG 20010904//EN"
 "http://www.w3.org/TR/2001/REC-SVG-20010904/DTD/svg10.dtd">
<svg version="1.0" xmlns="http://www.w3.org/2000/svg"
 width="2000.000000pt" height="2000.000000pt" viewBox="0 0 2000.000000 2000.000000"
 preserveAspectRatio="xMidYMid meet">
<metadata>
Created by potrace 1.14, written by Peter Selinger 2001-2017
</metadata>
<g transform="translate(0.000000,2000.000000) scale(0.100000,-0.100000)"
fill="#000000" stroke="none">
<path d="M12039 16226 c-2 -2 -47 -7 -99 -10 -52 -4 -106 -8 -120 -11 -14 -2
-56 -7 -95 -10 -95 -8 -245 -30 -410 -60 -49 -9 -105 -19 -124 -22 -30 -4
-370 -85 -411 -97 -8 -3 -49 -14 -90 -26 -164 -46 -515 -169 -640 -223 -19 -8
-51 -22 -70 -30 -462 -197 -884 -441 -1290 -746 -128 -96 -309 -241 -356 -285
-6 -6 -45 -40 -85 -76 -99 -87 -366 -354 -459 -459 -41 -47 -82 -92 -90 -100
-13 -14 -124 -150 -157 -191 -6 -8 -32 -40 -57 -72 -27 -33 -40 -58 -33 -60 7
-2 86 -3 176 -3 140 1 164 4 172 18 5 9 15 22 22 29 6 7 52 60 102 118 87 102
394 415 505 515 108 98 237 204 380 315 525 406 1178 744 1825 947 104 32 307
90 344 98 9 2 45 10 81 19 36 8 76 17 90 20 277 55 288 57 420 76 316 45 476
55 860 55 283 0 436 -6 555 -20 22 -2 63 -7 90 -9 148 -16 228 -27 395 -57
113 -19 130 -23 180 -33 14 -3 36 -8 50 -11 14 -3 34 -7 46 -9 82 -16 410
-108 556 -157 157 -52 366 -131 461 -173 18 -8 66 -29 107 -47 140 -61 458
-227 612 -319 350 -210 652 -435 967 -718 95 -86 310 -304 437 -443 125 -137
379 -464 480 -619 27 -41 51 -77 54 -80 13 -13 171 -273 226 -373 70 -125 243
-486 297 -617 74 -181 167 -446 211 -605 20 -71 40 -143 46 -160 5 -16 25
-100 44 -185 31 -138 44 -202 60 -305 13 -77 17 -101 21 -115 2 -8 6 -42 10
-75 3 -33 8 -67 10 -75 2 -8 7 -46 10 -85 4 -38 9 -86 11 -105 2 -19 6 -75 10
-125 3 -49 8 -110 10 -135 4 -57 4 -539 -1 -600 -1 -25 -6 -88 -9 -140 -7
-100 -14 -181 -21 -240 -3 -19 -7 -55 -10 -80 -3 -25 -7 -56 -10 -70 -2 -14
-7 -45 -10 -70 -3 -25 -10 -67 -15 -95 -5 -27 -11 -63 -14 -80 -42 -272 -195
-817 -307 -1090 -222 -545 -437 -936 -753 -1368 -78 -107 -289 -373 -306 -387
-4 -3 -30 -32 -60 -65 -67 -76 -313 -327 -377 -385 -28 -25 -85 -76 -127 -115
-358 -322 -875 -666 -1338 -889 -133 -65 -186 -88 -333 -151 -213 -91 -561
-204 -840 -273 -142 -36 -386 -85 -478 -97 -16 -2 -40 -6 -55 -9 -15 -3 -47
-8 -72 -11 -25 -3 -56 -7 -70 -10 -14 -2 -54 -7 -90 -10 -36 -3 -79 -8 -95
-10 -217 -27 -934 -27 -1139 1 -17 2 -62 6 -101 9 -38 4 -77 8 -85 10 -14 4
-115 20 -200 31 -118 15 -468 90 -605 130 -693 198 -1207 433 -1765 807 -461
309 -861 669 -1258 1132 l-60 70 -170 0 c-148 0 -169 -2 -162 -15 23 -41 242
-304 375 -450 83 -92 367 -371 435 -430 36 -30 70 -60 75 -66 54 -58 443 -357
605 -464 52 -34 113 -75 135 -90 36 -24 217 -133 305 -183 167 -95 589 -296
738 -351 234 -88 364 -133 489 -170 182 -55 501 -136 588 -150 17 -2 84 -14
150 -26 126 -23 138 -25 223 -35 29 -4 62 -8 72 -10 10 -2 50 -7 87 -10 37 -4
79 -8 92 -10 170 -28 1080 -27 1216 0 11 2 54 7 95 10 41 3 84 8 95 10 22 5
80 13 140 21 86 10 228 37 404 75 821 180 1595 524 2280 1014 286 205 514 398
772 655 160 159 226 230 378 405 117 135 312 397 437 586 112 171 127 196 262
432 92 159 256 513 348 748 120 309 272 827 299 1026 2 12 6 34 9 50 4 15 8
39 11 53 25 147 35 212 40 250 6 49 14 111 20 150 2 14 7 62 10 107 3 45 8 91
10 102 17 92 24 619 11 861 -10 183 -10 189 -32 380 -4 36 -23 173 -49 346 -2
17 -40 206 -60 304 -23 111 -111 426 -163 585 -149 451 -373 931 -616 1320
-114 182 -431 629 -465 655 -4 3 -29 32 -56 65 -149 180 -467 509 -635 657
-286 253 -676 540 -925 683 -11 7 -45 27 -75 45 -410 245 -861 440 -1410 608
-154 48 -610 151 -737 167 -18 2 -48 6 -65 9 -53 9 -109 16 -163 22 -27 3 -61
7 -74 9 -13 2 -58 7 -100 10 -42 4 -92 9 -111 12 -38 6 -875 15 -881 9z"/>
<path d="M13808 13025 c-2 -2 -42 -7 -88 -10 -47 -3 -92 -8 -100 -10 -8 -2
-35 -7 -60 -10 -36 -5 -173 -33 -293 -60 -11 -2 -67 -20 -125 -39 -327 -105
-613 -261 -862 -470 -108 -91 -265 -250 -342 -346 -33 -41 -67 -84 -75 -95 -9
-10 -49 -69 -88 -130 -104 -159 -161 -270 -265 -510 -5 -11 -23 -60 -40 -110
-17 -49 -35 -101 -40 -115 -27 -75 -91 -341 -105 -435 -2 -17 -11 -77 -19
-135 -14 -95 -19 -142 -32 -305 -5 -68 -6 -518 0 -580 2 -27 7 -84 10 -125 6
-68 30 -244 40 -296 2 -12 7 -38 10 -57 7 -45 39 -183 61 -262 110 -405 309
-791 570 -1104 105 -126 207 -226 383 -372 32 -27 219 -152 267 -179 201 -113
493 -226 655 -255 24 -4 159 -26 245 -41 78 -12 429 -12 537 2 284 35 525 127
718 277 69 54 198 180 240 236 14 18 30 38 36 44 55 62 174 276 229 415 21 51
39 92 40 90 3 -3 17 -131 31 -278 3 -30 7 -66 9 -80 2 -14 6 -56 10 -95 5 -67
10 -114 19 -200 5 -38 9 -86 24 -235 l7 -65 354 0 354 0 0 1445 c-1 795 -2
1455 -2 1468 l-1 22 -1122 -2 -1123 -3 0 -282 c0 -156 2 -284 5 -284 7 -2 139
-6 430 -13 794 -21 952 -26 962 -32 12 -8 0 -266 -18 -377 -3 -20 -7 -47 -9
-60 -26 -194 -124 -453 -237 -620 -168 -252 -405 -428 -693 -515 -55 -17 -117
-33 -139 -37 -21 -3 -41 -7 -45 -9 -3 -2 -42 -7 -86 -12 -357 -33 -664 27
-946 187 -128 73 -333 257 -432 389 -32 41 -60 80 -65 85 -43 56 -131 218
-180 330 -70 159 -143 397 -167 543 -12 76 -16 96 -19 101 -2 3 -7 37 -11 75
-3 37 -8 82 -10 100 -23 162 -22 573 0 756 14 106 37 251 55 330 103 463 341
889 641 1149 104 90 111 96 194 152 204 137 410 217 650 254 88 13 387 14 445
1 14 -3 41 -9 60 -12 347 -62 687 -284 963 -629 44 -55 81 -101 82 -103 1 -1
137 36 301 84 164 47 358 102 430 123 l132 36 -20 40 c-185 369 -463 694 -767
896 -230 153 -565 283 -836 326 -16 2 -41 6 -55 9 -14 2 -52 7 -85 10 -33 3
-71 8 -85 11 -30 6 -506 14 -512 8z"/>
<path d="M3847 12922 c-16 -3 -17 -197 -17 -2923 l0 -2919 434 0 c338 0 435 3
438 13 2 6 3 1058 2 2336 l0 2324 55 -115 c31 -63 83 -171 115 -239 33 -68 90
-189 129 -269 38 -80 86 -181 107 -225 21 -44 68 -143 105 -220 37 -77 86
-180 110 -230 23 -49 73 -153 110 -230 37 -77 84 -176 105 -220 21 -44 66
-138 100 -210 34 -71 79 -166 100 -210 21 -44 70 -147 110 -230 40 -82 92
-190 115 -240 24 -49 71 -148 105 -220 86 -179 164 -343 215 -450 23 -49 65
-137 93 -195 27 -58 82 -172 121 -255 39 -82 80 -166 91 -185 l19 -35 285 -1
286 0 34 70 c19 39 54 114 79 166 58 123 135 284 236 494 44 93 81 170 81 171
0 2 37 79 81 171 110 229 253 528 426 894 58 123 123 258 213 445 40 83 85
177 100 210 15 33 56 119 90 190 34 72 84 175 110 230 26 55 76 159 110 230
34 72 74 155 87 185 14 30 63 133 109 228 46 95 84 178 84 183 0 6 4 8 8 5 5
-3 8 -1031 8 -2285 -1 -1255 2 -2281 7 -2281 9 0 625 0 765 0 l109 0 0 2918
c0 1604 -3 2919 -8 2922 -9 6 -1197 6 -1203 -1 -2 -2 -37 -71 -76 -154 -40
-82 -106 -220 -148 -305 -41 -85 -76 -157 -77 -160 -1 -5 -27 -61 -183 -380
-49 -102 -118 -243 -152 -315 -34 -71 -99 -204 -143 -295 -44 -91 -103 -214
-132 -275 -29 -60 -91 -189 -138 -285 -46 -96 -116 -240 -154 -320 -93 -192
-178 -369 -276 -570 -44 -91 -108 -223 -142 -295 -140 -292 -186 -385 -190
-385 -3 0 -34 60 -69 133 -35 72 -101 209 -146 302 -165 340 -224 462 -280
580 -119 249 -190 395 -275 570 -48 99 -109 225 -135 280 -26 55 -92 190 -145
300 -54 110 -117 241 -140 290 -23 50 -80 167 -125 260 -218 450 -275 567
-426 883 -36 75 -68 139 -70 142 -5 5 -1211 7 -1237 2z"/>
</g>
</svg>
