<svg xmlns="http://www.w3.org/2000/svg" version="1.1" xmlns:xlink="http://www.w3.org/1999/xlink" xmlns:svgjs="http://svgjs.dev/svgjs" width="1440" height="560" preserveAspectRatio="none" viewBox="0 0 1440 560"><g mask="url(&quot;#SvgjsMask1009&quot;)" fill="none"><rect width="1440" height="560" x="0" y="0" fill="#0e2a47"></rect><path d="M 0,235 C 57.6,195 172.8,27.2 288,35 C 403.2,42.8 460.8,263.2 576,274 C 691.2,284.8 748.8,91.8 864,89 C 979.2,86.2 1036.8,261.6 1152,260 C 1267.2,258.4 1382.4,116.8 1440,81L1440 560L0 560z" fill="rgba(239, 206, 255, 1)"></path><path d="M 0,497 C 96,459 288,304.4 480,307 C 672,309.6 768,494 960,510 C 1152,526 1344,411.6 1440,387L1440 560L0 560z" fill="rgba(61, 103, 255, 1)"></path></g><defs><mask id="SvgjsMask1009"><rect width="1440" height="560" fill="#ffffff"></rect></mask></defs></svg>